HIERARCHY
ROOT root
{
	OFFSET	0	13.1	24.9
	CHANNELS 6  Xposition Yposition Zposition Xrotation Yrotation Zrotation
	JOINT spine_1
	{
		OFFSET	0	9.99999	0
		CHANNELS 3  Xrotation Yrotation Zrotation
		JOINT spine_2
		{
			OFFSET	0	112	-10
			CHANNELS 3  Xrotation Yrotation Zrotation
			JOINT spine_3
			{
				OFFSET	0	206.5	19.3
				CHANNELS 3  Xrotation Yrotation Zrotation
				JOINT spine_4
				{
					OFFSET	0	110.4	14.6
					CHANNELS 3  Xrotation Yrotation Zrotation
					JOINT neck_1
					{
						OFFSET	0	71.8	-50.3
						CHANNELS 3  Xrotation Yrotation Zrotation
						JOINT neck_2
						{
							OFFSET	0	86.2	-25.8
							CHANNELS 3  Xrotation Yrotation Zrotation
							JOINT head_ee
							{
								OFFSET	0	179.8	-8.7
								CHANNELS 3  Xrotation Yrotation Zrotation
								End Site
								{
									OFFSET	1	0	0
								}
							}
						}
					}
					JOINT left_clavicle
					{
						OFFSET	-43.2	22.4	-70.8
						CHANNELS 3  Xrotation Yrotation Zrotation
						JOINT left_shoulder
						{
							OFFSET	-93.9	-5.79999	48.7
							CHANNELS 3  Xrotation Yrotation Zrotation
							JOINT left_elbow
							{
								OFFSET	-291.4	-30.8	15.2
								CHANNELS 3  Xrotation Yrotation Zrotation
								JOINT left_lowarm_twist
								{
									OFFSET	-110.7	-3.89999	13.6
									CHANNELS 3  Xrotation Yrotation Zrotation
									JOINT left_hand
									{
										OFFSET	-110.7	-3.89999	13.6
										CHANNELS 3  Xrotation Yrotation Zrotation
										JOINT left_ee
										{
											OFFSET	-80.8	-5.10001	12.1
											CHANNELS 3  Xrotation Yrotation Zrotation
											End Site
											{
												OFFSET	1	0	0
											}
										}
									}
								}
							}
						}
					}
					JOINT right_clavicle
					{
						OFFSET	43.2	22.4	-70.8
						CHANNELS 3  Xrotation Yrotation Zrotation
						JOINT right_shoulder
						{
							OFFSET	93.9	-5.79999	48.7
							CHANNELS 3  Xrotation Yrotation Zrotation
							JOINT right_elbow
							{
								OFFSET	291.4	-30.8	15.2
								CHANNELS 3  Xrotation Yrotation Zrotation
								JOINT right_lowarm_twist
								{
									OFFSET	110.7	-3.89999	13.6
									CHANNELS 3  Xrotation Yrotation Zrotation
									JOINT right_hand
									{
										OFFSET	110.7	-3.89999	13.6
										CHANNELS 3  Xrotation Yrotation Zrotation
										JOINT right_ee
										{
											OFFSET	80.8	-5.10001	12.1
											CHANNELS 3  Xrotation Yrotation Zrotation
											End Site
											{
												OFFSET	1	0	0
											}
										}
									}
								}
							}
						}
					}
				}
			}
		}
	}
	JOINT left_hip
	{
		OFFSET	-82.8	-127.5	0.300001
		CHANNELS 3  Xrotation Yrotation Zrotation
		JOINT left_knee
		{
			OFFSET	-28.2	-396.7	2.2
			CHANNELS 3  Xrotation Yrotation Zrotation
			JOINT left_ankle
			{
				OFFSET	-11.7	-411.3	35.4
				CHANNELS 3  Xrotation Yrotation Zrotation
				JOINT left_toes
				{
					OFFSET	0	-60	-88.6
					CHANNELS 3  Xrotation Yrotation Zrotation
					JOINT left_foot_ee
					{
						OFFSET	-22.5	-16.5	-42.2
						CHANNELS 3  Xrotation Yrotation Zrotation
						End Site
						{
							OFFSET	1	0	0
						}
					}
				}
			}
		}
	}
	JOINT right_hip
	{
		OFFSET	82.8	-127.5	0.300001
		CHANNELS 3  Xrotation Yrotation Zrotation
		JOINT right_knee
		{
			OFFSET	28.2	-396.7	2.2
			CHANNELS 3  Xrotation Yrotation Zrotation
			JOINT right_ankle
			{
				OFFSET	11.7	-411.3	35.4
				CHANNELS 3  Xrotation Yrotation Zrotation
				JOINT right_toes
				{
					OFFSET	0	-60	-88.6
					CHANNELS 3  Xrotation Yrotation Zrotation
					JOINT right_foot_ee
					{
						OFFSET	22.5	-16.5	-42.2
						CHANNELS 3  Xrotation Yrotation Zrotation
						End Site
						{
							OFFSET	1	0	0
						}
					}
				}
			}
		}
	}
}
MOTION
Frames: 14
Frame Time: 0.02
3574.42 741.953 -1474.73 -0.573465442636 70.6423925812 -3.17377298654 -1.14164 0.237677 2.98143 -1.13669 0.0475654 2.9905 -1.13051 -0.640332 2.92159 -1.14238 -0.171101 2.98598 -1.48613 14.0564 -1.07446 -1.0475 26.1981 0.540967 -0.0 0.0 -0.0 -3.00484 17.1315 -2.64861 9.27363 -11.6958 65.4067 1.65187 -39.2899 0.589699 -60.609 -5.35859 5.11974 -0.386514 9.25385 1.35108 -0.0 0.0 -0.0 12.5649 24.2189 -24.8688 -14.1133 18.7773 -62.1763 0.193342 5.47101 -0.0092378 -4.60037 0.184629 -0.558156 -1.18565 9.4202 12.0935 0.0 0.0 0.0 0.294661 13.8764 4.07178 -3.9188 0.141396 0.584678 38.1978 27.3833 -5.07104 -34.3059 0.0 0.0 -0.0 0.0 -0.0 2.64234 26.9506 -1.22315 -3.52638 -0.129044 -0.525719 38.5003 -14.1341 4.78381 -34.9416 0.0 0.0 0.0 0.0 0.0 
3534.30373379 742.249 -1478.17705461 -3.17853015423 64.126989466 -1.88694236471 0.0358139 0.500707 3.30663 0.0418496 0.289403 3.33175 0.0618003 -0.414034 3.31858 0.0464522 0.114966 3.3423 -6.69162 12.4798 -2.47154 -6.63427 24.9487 0.0125064 -0.0 0.0 -0.0 -2.75162 17.5453 -2.17637 11.711 -12.9052 63.5071 1.86059 -42.6619 0.726626 -58.2182 -5.06203 5.04226 -1.27423 8.82276 -4.55644 -0.0 0.0 -0.0 12.3669 19.648 -24.8028 -20.7108 15.4389 -62.3042 0.204803 5.79318 -0.0103626 -4.77052 0.192315 -0.578507 -0.886396 7.92142 9.3885 0.0 0.0 0.0 -3.1175 14.0024 6.88453 -0.406474 0.0165238 0.0601891 39.4268 25.6786 -5.13476 -35.1961 0.0 0.0 -0.0 0.0 -0.0 -0.553745 28.6134 1.7507 -2.06035 -0.0793331 -0.306224 38.2825 -10.3568 4.72513 -35.1979 0.0 0.0 0.0 0.0 0.0 
3534.35725083 742.249 -1478.7515829 -3.08765746372 63.3071167831 -1.9882902445 0.0358139 0.500707 3.30663 0.0418496 0.289403 3.33175 0.0618003 -0.414034 3.31858 0.0464522 0.114966 3.3423 -6.69162 12.4798 -2.47154 -6.63427 24.9487 0.0125064 -0.0 0.0 -0.0 -2.75162 17.5453 -2.17637 11.711 -12.9052 63.5071 1.86059 -42.6619 0.726626 -58.2182 -5.06203 5.04226 -1.27423 8.82276 -4.55644 -0.0 0.0 -0.0 12.3669 19.648 -24.8028 -20.7108 15.4389 -62.3042 0.204803 5.79318 -0.0103626 -4.77052 0.192315 -0.578507 -0.886396 7.92142 9.3885 0.0 0.0 0.0 -3.1175 14.0024 6.88453 -0.406474 0.0165238 0.0601891 39.4268 25.6786 -5.13476 -35.1961 0.0 0.0 -0.0 0.0 -0.0 -0.553745 28.6134 1.7507 -2.06035 -0.0793331 -0.306224 38.2825 -10.3568 4.72513 -35.1979 0.0 0.0 0.0 0.0 0.0 
3534.44430692 742.249 -1479.54050545 -2.97177900018 62.1792258363 -2.1186363858 0.0358139 0.500707 3.30663 0.0418496 0.289403 3.33175 0.0618003 -0.414034 3.31858 0.0464522 0.114966 3.3423 -6.69162 12.4798 -2.47154 -6.63427 24.9487 0.0125064 -0.0 0.0 -0.0 -2.75162 17.5453 -2.17637 11.711 -12.9052 63.5071 1.86059 -42.6619 0.726626 -58.2182 -5.06203 5.04226 -1.27423 8.82276 -4.55644 -0.0 0.0 -0.0 12.3669 19.648 -24.8028 -20.7108 15.4389 -62.3042 0.204803 5.79318 -0.0103626 -4.77052 0.192315 -0.578507 -0.886396 7.92142 9.3885 0.0 0.0 0.0 -3.1175 14.0024 6.88453 -0.406474 0.0165238 0.0601891 39.4268 25.6786 -5.13476 -35.1961 0.0 0.0 -0.0 0.0 -0.0 -0.553745 28.6134 1.7507 -2.06035 -0.0793331 -0.306224 38.2825 -10.3568 4.72513 -35.1979 0.0 0.0 0.0 0.0 0.0 
3534.54527067 742.249 -1480.31596105 -2.86685495037 61.0678653857 -2.23788378877 0.0358139 0.500707 3.30663 0.0418496 0.289403 3.33175 0.0618003 -0.414034 3.31858 0.0464522 0.114966 3.3423 -6.69162 12.4798 -2.47154 -6.63427 24.9487 0.0125064 -0.0 0.0 -0.0 -2.75162 17.5453 -2.17637 11.711 -12.9052 63.5071 1.86059 -42.6619 0.726626 -58.2182 -5.06203 5.04226 -1.27423 8.82276 -4.55644 -0.0 0.0 -0.0 12.3669 19.648 -24.8028 -20.7108 15.4389 -62.3042 0.204803 5.79318 -0.0103626 -4.77052 0.192315 -0.578507 -0.886396 7.92142 9.3885 0.0 0.0 0.0 -3.1175 14.0024 6.88453 -0.406474 0.0165238 0.0601891 39.4268 25.6786 -5.13476 -35.1961 0.0 0.0 -0.0 0.0 -0.0 -0.553745 28.6134 1.7507 -2.06035 -0.0793331 -0.306224 38.2825 -10.3568 4.72513 -35.1979 0.0 0.0 0.0 0.0 0.0 
3534.700581 742.249 -1481.33036014 -2.74139943843 59.6092633544 -2.38224560053 0.0358139 0.500707 3.30663 0.0418496 0.289403 3.33175 0.0618003 -0.414034 3.31858 0.0464522 0.114966 3.3423 -6.69162 12.4798 -2.47154 -6.63427 24.9487 0.0125064 -0.0 0.0 -0.0 -2.75162 17.5453 -2.17637 11.711 -12.9052 63.5071 1.86059 -42.6619 0.726626 -58.2182 -5.06203 5.04226 -1.27423 8.82276 -4.55644 -0.0 0.0 -0.0 12.3669 19.648 -24.8028 -20.7108 15.4389 -62.3042 0.204803 5.79318 -0.0103626 -4.77052 0.192315 -0.578507 -0.886396 7.92142 9.3885 0.0 0.0 0.0 -3.1175 14.0024 6.88453 -0.406474 0.0165238 0.0601891 39.4268 25.6786 -5.13476 -35.1961 0.0 0.0 -0.0 0.0 -0.0 -0.553745 28.6134 1.7507 -2.06035 -0.0793331 -0.306224 38.2825 -10.3568 4.72513 -35.1979 0.0 0.0 0.0 0.0 0.0 
3534.90207513 742.249 -1482.44560847 -2.6168982378 57.9982802732 -2.52777882271 0.0358139 0.500707 3.30663 0.0418496 0.289403 3.33175 0.0618003 -0.414034 3.31858 0.0464522 0.114966 3.3423 -6.69162 12.4798 -2.47154 -6.63427 24.9487 0.0125064 -0.0 0.0 -0.0 -2.75162 17.5453 -2.17637 11.711 -12.9052 63.5071 1.86059 -42.6619 0.726626 -58.2182 -5.06203 5.04226 -1.27423 8.82276 -4.55644 -0.0 0.0 -0.0 12.3669 19.648 -24.8028 -20.7108 15.4389 -62.3042 0.204803 5.79318 -0.0103626 -4.77052 0.192315 -0.578507 -0.886396 7.92142 9.3885 0.0 0.0 0.0 -3.1175 14.0024 6.88453 -0.406474 0.0165238 0.0601891 39.4268 25.6786 -5.13476 -35.1961 0.0 0.0 -0.0 0.0 -0.0 -0.553745 28.6134 1.7507 -2.06035 -0.0793331 -0.306224 38.2825 -10.3568 4.72513 -35.1979 0.0 0.0 0.0 0.0 0.0 
3535.21968142 742.249 -1483.92412984 -2.47024409348 55.8483412694 -2.70276528327 0.0358139 0.500707 3.30663 0.0418496 0.289403 3.33175 0.0618003 -0.414034 3.31858 0.0464522 0.114966 3.3423 -6.69162 12.4798 -2.47154 -6.63427 24.9487 0.0125064 -0.0 0.0 -0.0 -2.75162 17.5453 -2.17637 11.711 -12.9052 63.5071 1.86059 -42.6619 0.726626 -58.2182 -5.06203 5.04226 -1.27423 8.82276 -4.55644 -0.0 0.0 -0.0 12.3669 19.648 -24.8028 -20.7108 15.4389 -62.3042 0.204803 5.79318 -0.0103626 -4.77052 0.192315 -0.578507 -0.886396 7.92142 9.3885 0.0 0.0 0.0 -3.1175 14.0024 6.88453 -0.406474 0.0165238 0.0601891 39.4268 25.6786 -5.13476 -35.1961 0.0 0.0 -0.0 0.0 -0.0 -0.553745 28.6134 1.7507 -2.06035 -0.0793331 -0.306224 38.2825 -10.3568 4.72513 -35.1979 0.0 0.0 0.0 0.0 0.0 
3535.64766106 742.249 -1485.58830251 -2.32609732829 53.4051207392 -2.87950593031 0.0358139 0.500707 3.30663 0.0418496 0.289403 3.33175 0.0618003 -0.414034 3.31858 0.0464522 0.114966 3.3423 -6.69162 12.4798 -2.47154 -6.63427 24.9487 0.0125064 -0.0 0.0 -0.0 -2.75162 17.5453 -2.17637 11.711 -12.9052 63.5071 1.86059 -42.6619 0.726626 -58.2182 -5.06203 5.04226 -1.27423 8.82276 -4.55644 -0.0 0.0 -0.0 12.3669 19.648 -24.8028 -20.7108 15.4389 -62.3042 0.204803 5.79318 -0.0103626 -4.77052 0.192315 -0.578507 -0.886396 7.92142 9.3885 0.0 0.0 0.0 -3.1175 14.0024 6.88453 -0.406474 0.0165238 0.0601891 39.4268 25.6786 -5.13476 -35.1961 0.0 0.0 -0.0 0.0 -0.0 -0.553745 28.6134 1.7507 -2.06035 -0.0793331 -0.306224 38.2825 -10.3568 4.72513 -35.1979 0.0 0.0 0.0 0.0 0.0 
3536.36708867 742.249 -1487.88951897 -2.15619197474 49.9763011803 -3.09593825027 0.0358139 0.500707 3.30663 0.0418496 0.289403 3.33175 0.0618003 -0.414034 3.31858 0.0464522 0.114966 3.3423 -6.69162 12.4798 -2.47154 -6.63427 24.9487 0.0125064 -0.0 0.0 -0.0 -2.75162 17.5453 -2.17637 11.711 -12.9052 63.5071 1.86059 -42.6619 0.726626 -58.2182 -5.06203 5.04226 -1.27423 8.82276 -4.55644 -0.0 0.0 -0.0 12.3669 19.648 -24.8028 -20.7108 15.4389 -62.3042 0.204803 5.79318 -0.0103626 -4.77052 0.192315 -0.578507 -0.886396 7.92142 9.3885 0.0 0.0 0.0 -3.1175 14.0024 6.88453 -0.406474 0.0165238 0.0601891 39.4268 25.6786 -5.13476 -35.1961 0.0 0.0 -0.0 0.0 -0.0 -0.553745 28.6134 1.7507 -2.06035 -0.0793331 -0.306224 38.2825 -10.3568 4.72513 -35.1979 0.0 0.0 0.0 0.0 0.0 
3537.74866439 742.249 -1491.35558705 -1.94968618765 44.6681992236 -3.37652895766 0.0358139 0.500707 3.30663 0.0418496 0.289403 3.33175 0.0618003 -0.414034 3.31858 0.0464522 0.114966 3.3423 -6.69162 12.4798 -2.47154 -6.63427 24.9487 0.0125064 -0.0 0.0 -0.0 -2.75162 17.5453 -2.17637 11.711 -12.9052 63.5071 1.86059 -42.6619 0.726626 -58.2182 -5.06203 5.04226 -1.27423 8.82276 -4.55644 -0.0 0.0 -0.0 12.3669 19.648 -24.8028 -20.7108 15.4389 -62.3042 0.204803 5.79318 -0.0103626 -4.77052 0.192315 -0.578507 -0.886396 7.92142 9.3885 0.0 0.0 0.0 -3.1175 14.0024 6.88453 -0.406474 0.0165238 0.0601891 39.4268 25.6786 -5.13476 -35.1961 0.0 0.0 -0.0 0.0 -0.0 -0.553745 28.6134 1.7507 -2.06035 -0.0793331 -0.306224 38.2825 -10.3568 4.72513 -35.1979 0.0 0.0 0.0 0.0 0.0 
3508.95863167 736.34 -1518.1501112 0.71834984137 44.5449614483 -6.86218494483 0.023831 0.904576 3.74097 0.0313699 0.664872 3.79085 0.0799435 -0.141061 3.84605 0.0596108 0.467668 3.82015 -6.85759 12.4418 -2.25693 -6.81712 24.7371 0.258251 -0.0 0.0 -0.0 -3.39772 18.2237 -3.03636 8.08082 -14.6989 64.3378 1.83777 -42.3099 0.711214 -54.9445 -4.66157 4.91619 -1.098 5.53971 -4.88348 -0.0 0.0 -0.0 12.5403 19.8854 -25.1868 -18.6544 16.5056 -65.3094 0.300953 8.47958 -0.0223108 -5.23178 0.213454 -0.633565 -0.38727 8.58355 6.27178 0.0 0.0 0.0 -3.8488 13.8746 6.70303 -9.7015 0.276259 1.46147 41.6257 22.2884 -5.23664 -36.4445 0.0 0.0 -0.0 0.0 -0.0 -1.36416 26.8674 2.60494 -11.2147 -0.296883 -1.69273 41.8293 -7.02508 5.01639 -31.7652 0.0 0.0 0.0 0.0 0.0 
3485.24601742 727.044 -1530.28694043 3.3285685622 50.0095970337 -9.77522443525 -0.186674 0.904212 3.96818 -0.178151 0.650083 4.01757 -0.126983 -0.21765 4.06392 -0.149771 0.426364 4.04738 -8.41343 12.9019 -1.59055 -8.50034 25.2501 1.38121 -0.0 0.0 -0.0 -3.82643 20.4732 -3.199 4.4029 -16.6993 64.802 1.85473 -42.5719 0.722656 -52.8419 -4.40835 4.82322 -1.06667 3.63352 -5.52648 -0.0 0.0 -0.0 12.3626 20.9042 -24.7011 -13.8536 18.3837 -68.153 0.48561 13.5261 -0.0575882 -5.3885 0.220738 -0.652233 0.0438733 9.49443 3.73918 0.0 0.0 0.0 -2.57365 13.8916 4.59768 -17.4733 0.317159 2.6523 41.6913 17.8457 -5.13336 -37.1348 0.0 0.0 -0.0 0.0 -0.0 -3.11794 24.9766 4.39345 -18.4747 -0.310672 -2.80582 41.5799 0.444647 5.01229 -26.3161 0.0 0.0 0.0 0.0 0.0 
3478.36482317 723.096 -1536.29135723 3.93968057863 50.6052788404 -10.2660949412 -0.164071 0.948612 4.00016 -0.155437 0.692364 4.0523 -0.100787 -0.181729 4.10692 -0.124011 0.46861 4.08418 -8.23048 13.0888 -1.70622 -8.30525 25.6657 1.26845 -0.0 0.0 -0.0 -4.28134 21.447 -3.64035 2.95973 -17.9352 64.8183 1.86195 -42.6828 0.727547 -52.38 -4.35318 4.80155 -1.05336 2.30412 -6.02926 -0.0 0.0 -0.0 12.7951 21.2776 -25.6718 -11.7098 18.8448 -68.4353 0.533946 14.8157 -0.0694225 -4.78438 0.192944 -0.580164 -0.0164263 8.88714 3.88782 0.0 0.0 0.0 -1.02422 14.4819 3.32772 -22.0957 0.264857 3.35943 42.0876 18.1965 -5.17534 -35.3256 0.0 0.0 -0.0 0.0 -0.0 -3.27759 20.1795 4.73132 -19.0811 -0.305441 -2.89871 41.2185 3.90271 5.01903 -22.8806 0.0 0.0 0.0 0.0 0.0 
